<svg id="Layer_1" data-name="Layer 1" 
	xmlns="http://www.w3.org/2000/svg" viewBox="0 0 519 623">
	<defs>
		<style>
      .cls-1, .cls-2 {
        fill: #fff;
        stroke: #000;
      }

      .cls-1, .cls-2, .cls-4, .cls-6, .cls-7 {
        stroke-miterlimit: 10;
      }

      .cls-1 {
        stroke-width: 2px;
      }

      .cls-2 {
        stroke-width: 10px;
      }

      .cls-3 {
        font-size: 131.88px;
        font-family: FuturaDisplayBQ, Futura Display BQ;
      }

      .cls-3, .cls-8 {
        fill: #b50000;
      }

      .cls-4, .cls-5, .cls-6, .cls-7 {
        fill: #020202;
      }

      .cls-4, .cls-7 {
        stroke: #fcfcfc;
      }

      .cls-4, .cls-6 {
        stroke-width: 3px;
      }

      .cls-6 {
        stroke: #fff;
      }

      .cls-7 {
        stroke-width: 5px;
      }
		</style>
	</defs>
	<title>Soul City Logo</title>
	<g>
		<path class="cls-1" d="M942,74V470c0,124.26-115.73,225-258.5,225S425,594.26,425,470V74Z" transform="translate(-424 -73)"/>
		<path class="cls-2" d="M884,216V477c0,81.91-89.77,148.31-200.5,148.31S483,558.93,483,477V216Z" transform="translate(-424 -73)"/>
		<text class="cls-3" transform="translate(37 117.03) scale(1.02 1)">soul city</text>
		<g>
			<path class="cls-4" d="M470.19,434.81c16.18,1.13,400.16,1.19,400.16,1.19L873,424.27l-283.54-4.68s-115.29,2.5-142-15.21c4.76,8.33,8.31,17.47,15,23.77C466.63,432.1,470.19,434.81,470.19,434.81Z" transform="translate(-424 -73)"/>
			<rect class="cls-5" x="252.23" y="272.27" width="135.63" height="6.69"/>
			<polygon class="cls-6" points="216.75 150.97 197.93 150.97 197.93 143.72 197.93 129 216.75 129 216.75 150.97"/>
			<rect class="cls-5" x="234.08" y="250.78" width="12.42" height="9.07"/>
			<rect class="cls-5" x="252.23" y="251.26" width="12.42" height="8.6"/>
			<rect class="cls-5" x="234.08" y="268.45" width="8.6" height="8.6"/>
			<rect class="cls-5" x="256.05" y="266.54" width="8.6" height="10.51"/>
			<rect class="cls-5" x="225.49" y="237.89" width="48.71" height="8.6"/>
			<rect class="cls-5" x="288.53" y="330.53" width="13.37" height="13.37"/>
			<path class="cls-6" d="M526,377.55l345.62,3a1.09,1.09,0,0,0,1.09-1l.31-6.34A1.08,1.08,0,0,0,872,372.1l-245-1.88-53.78-3L520.4,365.3a1.07,1.07,0,0,0-1,1.59L525.09,377A1.12,1.12,0,0,0,526,377.55Z" transform="translate(-424 -73)"/>
			<rect class="cls-5" x="195.88" y="154.79" width="22.92" height="8.6"/>
			<rect class="cls-5" x="212.12" y="272.27" width="34.39" height="6.69"/>
			<rect class="cls-5" x="234.08" y="265.59" width="30.56" height="6.69"/>
			<rect class="cls-5" x="199.7" y="168.16" width="14.33" height="131.81"/>
			<rect class="cls-5" x="213.07" y="282.78" width="174.79" height="19.1"/>
			<circle class="cls-7" cx="334.85" cy="335.79" r="48.71"/>
			<rect class="cls-5" x="123.29" y="329.58" width="13.37" height="13.37" rx="2.71"/>
			<rect class="cls-5" x="123.29" y="310.48" width="13.37" height="13.37" rx="2.71"/>
			<rect class="cls-5" x="143.35" y="329.58" width="13.37" height="13.37" rx="2.71"/>
			<rect class="cls-5" x="143.35" y="310.48" width="13.37" height="13.37" rx="2.71"/>
			<rect class="cls-5" x="164.36" y="329.58" width="13.37" height="13.37" rx="2.71"/>
			<rect class="cls-5" x="164.36" y="310.48" width="13.37" height="13.37" rx="2.71"/>
			<rect class="cls-5" x="185.37" y="329.58" width="13.37" height="13.37" rx="2.71"/>
			<rect class="cls-5" x="185.37" y="310.48" width="13.37" height="13.37" rx="2.71"/>
			<rect class="cls-5" x="206.39" y="329.58" width="13.37" height="13.37" rx="2.71"/>
			<rect class="cls-5" x="206.39" y="310.48" width="13.37" height="13.37" rx="2.71"/>
			<rect class="cls-5" x="225.49" y="329.58" width="13.37" height="13.37" rx="2.71"/>
			<rect class="cls-5" x="225.49" y="310.48" width="13.37" height="13.37" rx="2.71"/>
			<rect class="cls-5" x="246.5" y="329.58" width="13.37" height="13.37" rx="2.71"/>
			<rect class="cls-5" x="246.5" y="310.48" width="13.37" height="13.37" rx="2.71"/>
			<rect class="cls-5" x="267.51" y="329.58" width="13.37" height="13.37" rx="2.71"/>
			<rect class="cls-5" x="267.51" y="310.48" width="13.37" height="13.37" rx="2.71"/>
			<rect class="cls-5" x="288.53" y="329.58" width="13.37" height="13.37" rx="2.71"/>
			<rect class="cls-5" x="288.53" y="310.48" width="13.37" height="13.37" rx="2.71"/>
			<rect class="cls-5" x="412.7" y="332.44" width="13.37" height="13.37" rx="2.71"/>
			<rect class="cls-5" x="412.7" y="313.34" width="13.37" height="13.37" rx="2.71"/>
			<rect class="cls-6" x="431.32" y="311.43" width="16.71" height="16.71" rx="2.71"/>
			<rect class="cls-5" x="370.67" y="332.44" width="13.37" height="13.37" rx="2.71"/>
			<rect class="cls-5" x="370.67" y="313.34" width="13.37" height="13.37" rx="2.71"/>
			<rect class="cls-5" x="391.68" y="332.44" width="13.37" height="13.37" rx="2.71"/>
			<rect class="cls-5" x="391.68" y="313.34" width="13.37" height="13.37" rx="2.71"/>
			<rect class="cls-6" x="431.32" y="331.49" width="16.71" height="16.71" rx="2.71"/>
			<rect class="cls-6" x="101.8" y="308.57" width="16.71" height="16.71" rx="2.71"/>
			<rect class="cls-6" x="101.8" y="327.67" width="16.71" height="16.71" rx="2.71"/>
		</g>
		<g>
			<path class="cls-8" d="M523.71,528.6q5.32,5.32,10.91,10.23l2.69-3.07q-1.92-1.68-3.81-3.41s-3.66-3.14-4.77-5.35.24-3.66,1.11-4.53l5.87-5.87a5.45,5.45,0,0,1,1.72-1.19c3.13-1,7,3.12,7.87,4q6.93,6.38,14.28,12l-3.77,4.93q-5.37-4.11-10.53-8.62l-2.81,3.22q1.89,1.65,3.81,3.25a20.72,20.72,0,0,1,4.33,4.28,3.67,3.67,0,0,1-.16,4.88q-2.51,3.25-5,6.53a4.57,4.57,0,0,1-1.68,1.25c-3.11,1-7.55-2.64-8.71-3.58q-8.16-6.81-15.82-14.47Z" transform="translate(-424 -73)"/>
			<path class="cls-8" d="M557.55,542.67c2.71-3.46,4.44-4.93,7.64-4.79s6.16,1.75,12.42,5.61l3.83,2.33c4.55,2.91,6.24,4.87,7,6.6,1.27,2.67.73,4.73-1.05,8.58l-3.33,6.6c-1.36,2.32-2.94,5.54-7.43,5.69a8.54,8.54,0,0,1-2.13-.24c-2.4-.45-5.76-1.71-10.89-4.81-5.55-3.37-8.71-6-10.45-8.06a10.87,10.87,0,0,1-2-3.41c-1-2.83-.21-4.68,2-8.08Zm18.72,9a1.92,1.92,0,0,0,.17-.87c-.09-.42-.4-1.19-1.84-2.07s-2.33-.84-2.71-.66a1.74,1.74,0,0,0-.71.58q-3.43,5.45-6.85,10.89a6.21,6.21,0,0,0-.33.67c0,.46.39,1.47,2.14,2.54s2.62.84,3,.66a1.82,1.82,0,0,0,.54-.6Q573,557.2,576.27,551.64Z" transform="translate(-424 -73)"/>
			<path class="cls-8" d="M593.17,583.12a29.62,29.62,0,0,1-3.2-1.65c-2.1-1.37-3.54-3.18-3.55-4.63a3.46,3.46,0,0,1,.37-1.71q4-8.5,8.06-17a4.26,4.26,0,0,1,.92-1.27c1.11-1,3.29-1.16,5.73-.42a18.32,18.32,0,0,1,2.63,1q5.94,2.54,12,4.68l-2.24,6.3c-1.75-.62-3.48-1.26-5.22-1.92-1.82-.5-2.08-.44-2.6.47q-2.18,5.49-4.36,11c-.16,1,.07,1.31,2,2.17q2.67,1,5.35,2l-2.25,6.34Q599.92,586,593.17,583.12Z" transform="translate(-424 -73)"/>
			<path class="cls-8" d="M619.59,592.56a27.76,27.76,0,0,1-3.33-1.25c-2.23-1.1-3.86-2.72-4-4.15a3.55,3.55,0,0,1,.17-1.74l6-17.86a4.22,4.22,0,0,1,.76-1.37c1-1.14,3.1-1.56,5.59-1.13a18.65,18.65,0,0,1,2.71.69q6.15,1.79,12.38,3.19l-1.47,6.52c-1.79-.4-3.59-.83-5.37-1.28-1.86-.27-2.1-.18-2.51.78q-1.51,5.71-3,11.44c0,1.05.21,1.29,2.19,1.91,1.83.46,3.67.89,5.51,1.31-.49,2.18-1,4.37-1.48,6.56Q626.57,594.59,619.59,592.56Z" transform="translate(-424 -73)"/>
			<path class="cls-8" d="M646.77,598.74a13.28,13.28,0,0,1-5.6-2.13c-2.73-1.94-2.37-3.17-2.35-4.05q1.89-9.21,3.8-18.4a3.15,3.15,0,0,1,2.33-2.64c2.07-.8,3.74-.69,6.35-.33q9.09,1.5,18.26,2.21l-.48,6.19q-6.71-.51-13.38-1.45c-.2,1.44-.4,2.87-.61,4.31q6.81,1,13.66,1.48-.24,3.15-.49,6.31-7-.54-14-1.52c-.22,1.58-.44,3.16-.67,4.74q7.15,1,14.36,1.55l-.48,6.23Q657.06,600.45,646.77,598.74Z" transform="translate(-424 -73)"/>
			<path class="cls-8" d="M694.45,601.76c-1.28-.63-1.54-1.37-1.75-3-.05-1.71-.1-3.42-.16-5.14a1.84,1.84,0,0,0-.1-.86c-.5-1.49-2.89-1.27-3.71-1.27l-1.72,0,.06,8.55a2.88,2.88,0,0,0,.63,1.89q-7.8.08-15.59-.37l1.59-27.88a205.4,205.4,0,0,0,23.54,0,14.22,14.22,0,0,1,5.68.64,4.65,4.65,0,0,1,3.26,4.11l.36,3.66c0,.32,0,.6,0,.87a3.78,3.78,0,0,1-1.94,2.76c-2,1.21-4.38,1.51-7,1.77,1.11,0,7.41-.46,9.54,2.17a2.88,2.88,0,0,1,.74,2.07l.54,5.43c.21,1.29.41,2.63,2.47,3.4Q702.72,601.45,694.45,601.76Zm-5.88-16.42a15.33,15.33,0,0,0,2-.2c1.67-.4,2-1.24,1.94-3-.07-2.21-2.41-2.14-4.12-2.12h-1.49l0,5.34Z" transform="translate(-424 -73)"/>
			<path class="cls-8" d="M742.51,594.94a27.68,27.68,0,0,1-3.51.6c-2.46.17-4.68-.41-5.55-1.56a3.53,3.53,0,0,1-.73-1.59q-1.94-9.21-3.86-18.43a4,4,0,0,1,0-1.56c.27-1.47,1.88-2.9,4.24-3.78a18.26,18.26,0,0,1,2.67-.77q6.21-1.54,12.32-3.48c.68,2.13,1.35,4.25,2,6.38-1.76.55-3.52,1.09-5.3,1.59-1.74.71-1.91.91-1.77,1.94q1.57,5.7,3.16,11.4c.5.93.83,1,2.86.55,1.82-.53,3.63-1.07,5.44-1.65.68,2.14,1.35,4.28,2,6.42Q749.55,593.19,742.51,594.94Z" transform="translate(-424 -73)"/>
			<path class="cls-8" d="M760.93,589.55,754.3,570a19.11,19.11,0,0,0-3.46-6.52q7.29-2.41,14.42-5.39c-.28,2.09.25,3.75,1.62,7.29l5.3,12.92c5.15-2.13,6.49-2.95,8.78-4.64.38,2.53.72,5.07,1,7.61Q771.63,585.92,760.93,589.55Z" transform="translate(-424 -73)"/>
			<path class="cls-8" d="M815.37,557.4a4,4,0,0,1,.8,2.76c-.3,2.3-3.39,4.45-6.23,6.17q-8,5-16.4,9.36a12.54,12.54,0,0,1-5.54,1.63,3.31,3.31,0,0,1-3.16-2.38l-10.08-21.1c3.84-1.84,7.64-3.79,11.38-5.88l9.69,17.43a1.73,1.73,0,0,0,2.09.87,6.25,6.25,0,0,0,1.78-.7,5.79,5.79,0,0,0,1.36-1.11,1.72,1.72,0,0,0,.17-2.17q-5.07-8.58-10.16-17.15,5.64-3.35,11.11-7.08Z" transform="translate(-424 -73)"/>
			<path class="cls-8" d="M806.77,534.82a207.67,207.67,0,0,0,19.14-15.68,14.6,14.6,0,0,1,4.56-3.07,9.58,9.58,0,0,1,2-.41,3.64,3.64,0,0,1,2.72.91l3.5,3.5a3.08,3.08,0,0,1,.72,3.4c-.69,2.34-2.56,4.41-4.54,6.44,2.14-1.75,4.25-3.43,6.47-4a3.81,3.81,0,0,1,4,.8l3.19,3.19a3.75,3.75,0,0,1,.58,3.66c-.89,2.93-3.35,5.24-4.31,6.17a236,236,0,0,1-21.66,17.74Zm19.42-1.46a7,7,0,0,0,1.32-1.29c1.38-1.71.31-2.58-.28-3.26-1.31-1.49-2.8-.33-4.22.91l-1.44,1.21,3.08,3.72Zm7.23,8.18a14.92,14.92,0,0,0,1.49-1.49c.87-1.22.58-1.92-.33-3a2.1,2.1,0,0,0-1.05-.71c-1.26-.36-2.87,1.18-3.29,1.53l-1.7,1.43c1,1.23,2.05,2.47,3.08,3.71Z" transform="translate(-424 -73)"/>
		</g>
	</g>
</svg>
